<mxfile host="app.diagrams.net" modified="2023-06-30T06:57:53.179Z" agent="Mozilla/5.0 (Windows NT 10.0; Win64; x64) AppleWebKit/537.36 (KHTML, like Gecko) Chrome/114.0.0.0 Safari/537.36" version="21.5.1" etag="ZRHPYMuOCTH3pEBQDo5p" type="github">
  <diagram name="Page-1" id="gyWRk9z4c-KbAEGPRz89">
    <mxGraphModel>
      <root>
        <mxCell id="0" />
        <mxCell id="1" parent="0" />
      </root>
    </mxGraphModel>
  </diagram>
</mxfile>
